<?xml version="1.0" encoding="iso-8859-1"?>
<!-- Generator: Adobe Illustrator 19.0.0, SVG Export Plug-In . SVG Version: 6.00 Build 0)  -->
<svg version="1.1" id="Capa_1" xmlns="http://www.w3.org/2000/svg" xmlns:xlink="http://www.w3.org/1999/xlink" x="0px" y="0px"
	 viewBox="0 0 512.008 512.008" style="enable-background:new 0 0 512.008 512.008;" xml:space="preserve">
<path style="fill:#FF9800;" d="M458.675,202.682H207.091l77.781-77.781c21.844-21.838,21.849-57.249,0.011-79.093
	c-21.838-21.844-57.249-21.849-79.093-0.011L3.123,248.463c-4.164,4.165-4.164,10.917,0,15.083L205.79,466.212
	c21.838,21.838,57.245,21.838,79.083,0c21.838-21.838,21.838-57.245,0-79.083l0,0l-77.781-77.781h251.584
	c29.455,0,53.333-23.878,53.333-53.333S488.13,202.682,458.675,202.682z"/>
<path d="M245.342,482.575c-14.836,0.024-29.069-5.864-39.552-16.363L3.123,263.546c-4.164-4.165-4.164-10.917,0-15.083
	L205.79,45.796c21.838-21.838,57.245-21.838,79.083,0c21.838,21.838,21.838,57.245,0,79.083l-77.781,77.803h251.584
	c29.455,0,53.333,23.878,53.333,53.333s-23.878,53.333-53.333,53.333H207.091l77.781,77.781
	c21.844,21.811,21.87,57.201,0.059,79.045C274.438,476.684,260.193,482.585,245.342,482.575z M25.758,256.015L220.872,451.13
	c13.508,13.508,35.409,13.508,48.917,0c13.508-13.508,13.508-35.409,0-48.917l0,0l-96-96c-4.159-4.172-4.149-10.926,0.024-15.085
	c1.999-1.993,4.706-3.112,7.528-3.112h277.333c17.673,0,32-14.327,32-32s-14.327-32-32-32H181.342
	c-5.891,0.011-10.675-4.757-10.686-10.648c-0.005-2.84,1.123-5.565,3.134-7.571l96-96c13.508-13.508,13.508-35.409,0-48.917
	c-13.508-13.508-35.409-13.508-48.917,0L25.758,256.015z"/>
<g>
</g>
<g>
</g>
<g>
</g>
<g>
</g>
<g>
</g>
<g>
</g>
<g>
</g>
<g>
</g>
<g>
</g>
<g>
</g>
<g>
</g>
<g>
</g>
<g>
</g>
<g>
</g>
<g>
</g>
</svg>
